# xmcd
#
# Track frame offsets:
#	150
#	10929
#	20991
#	34628
#	37203
#	53660
#	64104
#	76527
#	77844
#	95822
#	108029
#	123913
#	133940
#	145077
#	150827
#	160265
#	166790
#	170393
#	176203
#	179005
#	179791
#	182752
#	184870
#	194598
#	195829
#	201479
#	207370
#	210358
#	218889
#	222661
#	226163
#	231555
#	254759
#	256462
#	257922
#	260565
#	277453
#	282963
#	291167
#	296617
#	302130
#
# Disc length: 4064 seconds
# Revision: 0
# Processed by: cddbd v1.5.2PL0 Copyright (c) Steve Scherf et al.
# Submitted via: dBpowerAMP V12.0
#
DISCID=830fde29
DTITLE=Cash/Presley/Perkins/Lewis - The Million Dollar Quartet
DYEAR=1956
DGENRE=
TTITLE0=Don't be Cruel (pt. 1)
TTITLE1=Don't be Cruel (pt. 2)
TTITLE2=Paralysed
TTITLE3=Don't be Cruel (pt. 3)
TTITLE4=There's no Place Like Home
TTITLE5=When The Saints
TTITLE6=Softly And Tenderly
TTITLE7=When God Dips His Love
TTITLE8=Just a Little Walk With Jesus
TTITLE9=(Walk That) Lonesome Valley
TTITLE10=I Shall Not be Moved
TTITLE11=(There'll Be) Peace in The Valley
TTITLE12=Down by The Riverside
TTITLE13=I'm in The Crowd But Oh, so Alone
TTITLE14=Farther Along
TTITLE15=Blessed Jesus, Hold my Hand
TTITLE16=As we Travel Along on The Jericho Road
TTITLE17=I Just Can't Make it by Myself
TTITLE18=Little Cabin Holm on The Hill
TTITLE19=Summertime Has Passed And Gone
TTITLE20=I Hear a Sweet Voice Calling
TTITLE21=Sweetheart, You Done me Wrong
TTITLE22=The Keeper of The Key
TTITLE23=Crazy Arms (pt. 1)
TTITLE24=Don't Forbid me
TTITLE25=Medley: Too Much Monkey Business/Brown Eyed Handsome Man (pt. 1)
TTITLE26=Out of Sight, Out of Mind
TTITLE27=Brown Eyed Handsome Man ( pt. 2)
TTITLE28=Don't Forbid Me (pt.2)
TTITLE29=You Belong to my Heart
TTITLE30=Is it so Strange?
TTITLE31=That's When Your Heartaches Begin
TTITLE32=Brown Eyed Handsome Man (pt. 3)
TTITLE33=Rip it up
TTITLE34=I'm Gonna Bid my Blues Goodbye
TTITLE35=Crazy Arms (pt.2)
TTITLE36=That's my Desire
TTITLE37=End of The Road
TTITLE38=Black Bottom Stomp
TTITLE39=You're The Only Star in my Blue Heaven
TTITLE40=Elvis Farewell
EXTD=
EXTT0=
EXTT1=
EXTT2=
EXTT3=
EXTT4=
EXTT5=
EXTT6=
EXTT7=
EXTT8=
EXTT9=
EXTT10=
EXTT11=
EXTT12=
EXTT13=
EXTT14=
EXTT15=
EXTT16=
EXTT17=
EXTT18=
EXTT19=
EXTT20=
EXTT21=
EXTT22=
EXTT23=
EXTT24=
EXTT25=
EXTT26=
EXTT27=
EXTT28=
EXTT29=
EXTT30=
EXTT31=
EXTT32=
EXTT33=
EXTT34=
EXTT35=
EXTT36=
EXTT37=
EXTT38=
EXTT39=
EXTT40=
PLAYORDER=
